<?xml version="1.0" encoding="UTF-8"?>
<svg width="18px" height="11px" viewBox="0 0 18 11" version="1.1" xmlns="http://www.w3.org/2000/svg" xmlns:xlink="http://www.w3.org/1999/xlink">
    <!-- Generator: Sketch 55.2 (78181) - https://sketchapp.com -->
    <title>Behance</title>
    <desc>Created with Sketch.</desc>
    <g id="Symbols" stroke="none" stroke-width="1" fill="none" fill-rule="evenodd">
        <g id="Footer" transform="translate(-1199.000000, -281.000000)" fill="#FFFFFF" fill-rule="nonzero">
            <path d="M1215.49962,282.5 L1211,282.5 L1211,281.5 L1215.5,281.5 L1215.5,282.5 L1215.49962,282.5 L1215.49962,282.5 Z M1207.57208,287.068557 C1207.85741,287.511262 1208,288.048788 1208,288.67986 C1208,289.33247 1207.83924,289.91792 1207.51217,290.43506 C1207.3041,290.777271 1207.04576,291.066338 1206.73535,291.299055 C1206.38576,291.568187 1205.97187,291.752733 1205.49606,291.851336 C1205.01874,291.950103 1204.5021,292 1203.94559,292 L1199,292 L1199,281 L1204.30339,281 C1205.64017,281.021784 1206.58788,281.409741 1207.14752,282.17164 C1207.48333,282.638923 1207.64971,283.19963 1207.64971,283.851377 C1207.64971,284.52388 1207.48131,285.061981 1207.14223,285.470818 C1206.9536,285.700041 1206.67495,285.908549 1206.30608,286.096753 C1206.86481,286.301644 1207.28875,286.624291 1207.57208,287.068557 Z M1201.5,285.5 L1203.86514,285.5 C1204.35118,285.5 1204.74409,285.406335 1205.0467,285.219089 C1205.34911,285.032139 1205.5,284.699822 1205.5,284.222688 C1205.5,283.695545 1205.3002,283.345655 1204.89965,283.177253 C1204.55536,283.060256 1204.11484,283 1203.58031,283 L1201.5,283 L1201.5,285.5 Z M1205.5,288.396736 C1205.5,287.811979 1205.27548,287.407714 1204.82736,287.190797 C1204.57677,287.067511 1204.2232,287.004501 1203.76986,287 L1201.5,287 L1201.5,290 L1203.73473,290 C1204.19384,290 1204.54918,289.936023 1204.80563,289.802557 C1205.26809,289.557163 1205.5,289.09014 1205.5,288.396736 Z M1216.9283,286.718001 C1216.98308,287.083905 1217.00786,287.614792 1216.99781,288.308698 L1211.12464,288.308698 C1211.15704,289.113804 1211.43691,289.676826 1211.96768,289.999019 C1212.28776,290.201069 1212.67585,290.299733 1213.13029,290.299733 C1213.60948,290.299733 1214.00004,290.179422 1214.30069,289.932115 C1214.4645,289.801023 1214.609,289.615982 1214.73393,289.382507 L1216.88664,289.382507 C1216.83025,289.858023 1216.57105,290.34031 1216.10525,290.830411 C1215.38357,291.609399 1214.37143,292 1213.07155,292 C1211.99772,292 1211.05134,291.670578 1210.2299,291.014115 C1209.41119,290.355354 1209,289.286977 1209,287.804932 C1209,286.415156 1209.36915,285.351418 1210.10993,284.611001 C1210.85345,283.869205 1211.813,283.5 1212.99577,283.5 C1213.69683,283.5 1214.3288,283.624448 1214.8926,283.874638 C1215.45464,284.125079 1215.91914,284.519233 1216.28496,285.060943 C1216.61603,285.538006 1216.82895,286.08962 1216.9283,286.718001 Z M1215,286.999963 C1214.96199,286.508691 1214.78174,286.136862 1214.45718,285.882744 C1214.1353,285.627926 1213.73319,285.5 1213.25338,285.5 C1212.73119,285.5 1212.32798,285.636739 1212.04148,285.905497 C1211.75303,286.173702 1211.57355,286.53834 1211.5,287 L1215,287 L1215,286.999963 Z" id="Behance"></path>
        </g>
    </g>
</svg>