<?xml version="1.0" encoding="UTF-8"?>
<svg width="16px" height="16px" viewBox="0 0 16 16" version="1.1" xmlns="http://www.w3.org/2000/svg" xmlns:xlink="http://www.w3.org/1999/xlink">
    <!-- Generator: Sketch 55.2 (78181) - https://sketchapp.com -->
    <title>dribble_icon</title>
    <desc>Created with Sketch.</desc>
    <g id="Symbols" stroke="none" stroke-width="1" fill="none" fill-rule="evenodd">
        <g id="Footer" transform="translate(-1199.000000, -170.000000)" fill="#FFFFFF" fill-rule="nonzero">
            <g id="dribble_icon" transform="translate(1199.000000, 170.000000)">
                <path d="M8,0 C3.58333333,0 0,3.58333333 0,8 C0,12.4208333 3.58333333,16 8,16 C12.4166667,16 16,12.4208333 16,8 C16,3.58333333 12.4166667,0 8,0 Z M13.0791667,3.6875 C13.9791667,4.74583333 14.55,6.0875 14.65,7.55833333 C13.2083333,7.48333333 11.4833333,7.48333333 10.1,7.6125 C9.925,7.17083333 9.74583333,6.7375 9.55,6.32083333 C11.1458333,5.62916667 12.375,4.72083333 13.0791667,3.6875 Z M8,1.33333333 C9.61666667,1.33333333 11.1,1.90833333 12.2541667,2.86666667 C11.5291667,3.78333333 10.3916667,4.57916667 8.975,5.18333333 C8.2,3.75 7.30833333,2.51666667 6.35833333,1.54583333 C6.8875,1.4125 7.43333333,1.33333333 8,1.33333333 Z M4.98333333,2.0625 C5.94583333,3.02083333 6.85,4.24166667 7.64166667,5.67083333 C6.1375,6.12916667 4.4125,6.39166667 2.57083333,6.39166667 C2.22083333,6.39166667 1.87916667,6.37916667 1.54166667,6.35833333 C2.02083333,4.47916667 3.29166667,2.92083333 4.98333333,2.0625 Z M1.34583333,7.68333333 C1.725,7.7 2.10833333,7.70833333 2.49583333,7.70416667 C4.59583333,7.67916667 6.55,7.35 8.22916667,6.8125 C8.3875,7.14166667 8.5375,7.47916667 8.67916667,7.825 C8.45,7.87916667 8.24583333,7.9375 8.08333333,8.00416667 C5.7875,8.96666667 3.97916667,10.5208333 3,12.4 C1.96666667,11.225 1.33333333,9.6875 1.33333333,8 C1.33333333,7.89166667 1.3375,7.7875 1.34583333,7.68333333 Z M8,14.6666667 C6.45833333,14.6666667 5.04166667,14.1416667 3.9125,13.2625 C4.8,11.5041667 6.38333333,10.05 8.37916667,9.14583333 C8.56666667,9.05833333 8.81666667,8.9875 9.10416667,8.925 C9.34166667,9.58333333 9.55416667,10.2666667 9.74166667,10.975 C10.0291667,12.0791667 10.2333333,13.1708333 10.3583333,14.2291667 C9.625,14.5083333 8.83333333,14.6666667 8,14.6666667 Z M11.6041667,13.6041667 C11.4791667,12.5333333 11.275,11.4333333 10.9833333,10.3166667 C10.8416667,9.775 10.6791667,9.25 10.5041667,8.7375 C11.8125,8.62916667 13.3791667,8.64583333 14.625,8.7375 C14.4,10.7833333 13.25,12.5416667 11.6041667,13.6041667 Z" id="Shape"></path>
            </g>
        </g>
    </g>
</svg>