<?xml version="1.0" encoding="UTF-8"?>
<svg width="188px" height="70px" viewBox="0 0 188 70" version="1.1" xmlns="http://www.w3.org/2000/svg" xmlns:xlink="http://www.w3.org/1999/xlink">
    <!-- Generator: Sketch 55.2 (78181) - https://sketchapp.com -->
    <title>eyseren</title>
    <desc>Created with Sketch.</desc>
    <g id="Page-1" stroke="none" stroke-width="1" fill="none" fill-rule="evenodd">
        <g id="15&quot;-Macbook" transform="translate(-164.000000, -6684.000000)">
            <g id="eyseren" transform="translate(158.000000, 6661.000000)">
                <g id="Group" transform="translate(6.000000, 23.000000)" fill="#FFFFFF" fill-rule="nonzero">
                    <path d="M166.139535,44.7861648 L166.139535,68.8604651 L170.035459,68.8604651 L170.035459,54.3732755 C170.035459,53.3080409 170.251899,52.2428065 170.68478,51.1775719 C171.11766,50.3253843 171.550541,49.4731967 172.199861,48.834056 C172.849183,48.1949152 173.714944,47.5557746 174.580704,47.3427276 C175.446465,46.9166338 176.528666,46.703587 177.610869,46.703587 C179.775271,46.703587 181.506793,47.3427276 182.588994,48.621009 C183.671195,49.8992905 184.104076,51.3906189 184.104076,53.7341348 L184.104076,68.6474182 L188,68.6474182 L188,53.0949941 C188,51.6036657 187.78356,50.3253843 187.35068,49.2601498 C186.917799,47.9818684 186.268478,47.1296808 185.402717,46.2774932 C184.536956,45.4253054 183.671195,44.7861648 182.372553,44.360071 C181.290352,43.9339772 179.99171,43.7209302 178.476629,43.7209302 C176.312227,43.7209302 174.580704,44.147024 173.282063,44.9992116 C171.983422,45.8513992 170.901221,47.1296808 170.035459,48.4079622 L170.035459,44.147024 L166.139535,44.7861648 Z" id="Fill-1"></path>
                    <path d="M124.604651,44.5804015 L124.604651,68.8604651 L128.539535,68.8604651 L128.539535,58.7616776 C128.539535,56.8278672 128.75814,55.1089246 129.413953,53.8197177 C129.851163,52.3156431 130.725581,51.2413039 131.6,50.3818326 C132.474419,49.5223614 133.567442,48.6628901 134.660465,48.2331544 C135.972093,47.8034188 137.065116,47.5885509 138.595349,47.5885509 L138.813953,47.5885509 L138.813953,43.7209302 C137.72093,43.7209302 136.627907,43.9357981 135.534884,44.1506659 C134.44186,44.3655337 133.567442,45.0101372 132.693023,45.4398728 C131.818605,46.0844763 131.162791,46.7290798 130.288372,47.5885509 C129.632558,48.4480222 128.976744,49.3074935 128.539535,50.3818326 L128.539535,43.9357981 L124.604651,44.5804015 Z" id="Fill-3"></path>
                    <path d="M87.0649559,69.0790698 C88.3652767,68.6418605 89.6655975,67.9860465 90.7491981,67.1116279 C91.8327987,66.2372093 92.4829591,65.3627907 93.1331195,64.0511628 C93.7832798,62.9581395 94,61.6465116 94,60.1162791 C94,57.4930233 93.1331195,55.5255814 91.3993585,53.9953488 C89.6655975,52.4651163 86.8482358,51.372093 83.1639936,50.4976744 C81.4302326,50.0604651 79.9131917,49.6232558 78.6128709,49.1860465 C77.5292703,48.7488372 76.4456696,48.3116279 75.7955092,47.655814 C75.1453488,47.2186047 74.7119086,46.5627907 74.4951884,45.9069767 C74.2784684,45.2511628 74.0617482,44.5953488 74.0617482,43.7209302 C74.0617482,42.1906977 74.7119086,40.8790698 76.0122293,39.7860465 C77.3125501,38.6930233 79.0463111,38.255814 81.2135124,38.255814 C82.9472734,38.255814 84.6810344,38.4744186 86.1980754,39.1302326 C87.7151163,39.7860465 89.4488773,40.6604651 90.9659182,41.972093 L93.1331195,39.1302326 C91.3993585,37.8186047 89.6655975,36.7255814 87.7151163,36.0697674 C85.9813552,35.4139535 83.814154,34.9767442 81.2135124,34.9767442 C79.6964715,34.9767442 78.1794307,35.1953488 76.8791099,35.6325581 C75.5787891,36.0697674 74.2784684,36.7255814 73.4115878,37.6 C72.3279872,38.4744186 71.6778268,39.3488372 71.0276664,40.4418605 C70.5942261,41.5348837 70.1607859,42.8465116 70.1607859,44.1581395 C70.1607859,45.4697674 70.377506,46.7813953 70.8109463,47.8744186 C71.2443865,48.9674419 71.8945469,49.8418605 72.7614274,50.4976744 C73.628308,51.372093 74.9286287,52.027907 76.2289495,52.4651163 C77.7459903,52.9023256 79.2630313,53.5581395 81.2135124,53.9953488 C82.9472734,54.4325581 84.4643144,54.8697674 85.547915,55.3069767 C86.6315156,55.744186 87.4983961,56.1813953 88.1485565,56.6186047 C88.7987169,57.055814 89.2321571,57.7116279 89.4488773,58.3674419 C89.6655975,59.0232558 89.8823175,59.6790698 89.8823175,60.5534884 C89.8823175,62.3023256 89.2321571,63.6139535 87.9318364,64.7069767 C86.6315156,65.8 84.6810344,66.2372093 82.5138332,66.2372093 C80.1299118,66.2372093 78.1794307,65.8 76.4456696,65.144186 C74.7119086,64.2697674 72.9781476,63.1767442 71.2443865,61.6465116 L68.8604651,64.4883721 C70.8109463,66.2372093 72.9781476,67.7674419 75.1453488,68.6418605 C77.3125501,69.5162791 79.6964715,69.9534884 82.5138332,69.9534884 C84.2475942,69.7348837 85.7646351,69.5162791 87.0649559,69.0790698" id="Fill-5"></path>
                    <path d="M156.180879,65.7650967 C154.844962,66.4264217 153.509043,66.6468634 151.727821,66.6468634 C150.614556,66.6468634 149.501292,66.4264217 148.388027,65.9855384 C147.274763,65.5446551 146.384152,65.1037717 145.716193,64.4424468 C144.825581,63.7811218 144.157623,62.8993551 143.712316,61.7971467 C143.267011,60.6949385 142.821706,59.5927301 142.821706,58.2700802 L162.860465,54.7430135 C162.637812,53.8612468 162.637812,52.9794801 162.41516,52.0977135 L162.41516,51.8772719 C161.969853,50.3341802 161.079242,48.7910886 160.188631,47.6888802 C159.075366,46.5866718 157.962102,45.4844636 156.403532,44.8231386 C154.844962,44.1618135 153.286391,43.7209302 151.282515,43.7209302 C149.501292,43.7209302 147.942722,44.1618135 146.384152,44.8231386 C144.825581,45.4844636 143.712316,46.3662302 142.599053,47.6888802 C141.485788,48.7910886 140.595177,50.3341802 139.927218,51.8772719 C139.259259,53.4203635 138.813953,55.1838969 138.813953,56.9474301 C138.813953,58.9314051 139.259259,60.6949385 139.927218,62.2380301 C140.595177,63.7811218 141.485788,65.3242134 142.821706,66.4264217 C143.93497,67.5286301 145.270887,68.4103967 146.829457,69.0717217 C148.388027,69.7330467 149.946598,69.9534884 151.727821,69.9534884 C154.177003,69.9534884 156.180879,69.5126051 157.739449,68.85128 C159.298019,68.189955 160.85659,66.8673051 162.192507,65.3242134 L159.743325,63.3402384 C158.630061,64.2220051 157.516796,65.1037717 156.180879,65.7650967 M143.712316,52.0977135 C144.157623,50.9955052 144.825581,50.1137385 145.49354,49.4524135 C146.161498,48.7910886 147.05211,48.1297635 147.942722,47.6888802 C148.833334,47.2479969 149.946598,47.0275552 151.059863,47.0275552 C152.39578,47.0275552 153.509043,47.2479969 154.399655,47.6888802 C155.290267,48.1297635 156.180879,48.7910886 156.848837,49.4524135 C157.516796,50.3341802 157.962102,51.2159469 158.407407,52.0977135 C158.407407,52.3181551 158.630061,52.5385968 158.630061,52.5385968 L142.821706,55.1838969 C142.821706,54.3021302 143.267011,53.1999218 143.712316,52.0977135" id="Fill-7"></path>
                    <path d="M113.736288,65.7650967 C112.437034,66.4264217 111.137779,66.6468634 109.405441,66.6468634 C108.322729,66.6468634 107.240017,66.4264217 106.157306,65.9855384 C105.074594,65.5446551 104.208425,65.1037717 103.558798,64.4424468 C102.692628,63.7811218 102.043001,62.8993551 101.609917,61.7971467 C101.176832,60.6949385 100.743747,59.5927301 100.743747,58.2700802 L120.232558,54.7430135 C120.016016,53.8612468 120.016016,52.9794801 119.799474,52.0977135 L119.799474,51.8772719 C119.366389,50.3341802 118.500219,48.7910886 117.634051,47.6888802 C116.551338,46.5866718 115.468626,45.4844636 113.95283,44.8231386 C112.437034,44.1618135 110.921237,43.7209302 109.188899,43.7209302 C107.45656,43.7209302 105.940763,44.1618135 104.424967,44.8231386 C102.909171,45.4844636 101.826459,46.3662302 100.743747,47.6888802 C99.6610356,48.7910886 98.7948662,50.3341802 98.1452391,51.8772719 C97.4956121,53.4203635 97.2790698,55.1838969 97.2790698,56.9474301 C97.2790698,58.9314051 97.7121544,60.6949385 98.3617814,62.2380301 C99.0114086,63.7811218 99.8775779,65.3242134 100.96029,66.4264217 C102.043001,67.5286301 103.342255,68.4103967 104.858052,69.0717217 C106.373848,69.7330467 107.889645,69.9534884 109.621984,69.9534884 C112.003949,69.9534884 113.95283,69.5126051 115.468626,68.85128 C116.984423,67.9695133 118.500219,66.8673051 119.799474,65.3242134 L116.984423,63.3402384 C115.901711,64.2220051 114.819,65.1037717 113.736288,65.7650967 M101.393374,52.0977135 C101.826459,50.9955052 102.476086,50.1137385 103.125713,49.4524135 C103.77534,48.7910886 104.641509,48.1297635 105.507679,47.6888802 C106.373848,47.2479969 107.45656,47.0275552 108.539272,47.0275552 C109.838526,47.0275552 110.921237,47.2479969 111.787407,47.6888802 C112.653576,48.1297635 113.519746,48.7910886 114.169372,49.4524135 C114.819,50.3341802 115.252084,51.2159469 115.685169,52.0977135 C115.685169,52.3181551 115.901711,52.5385968 115.901711,52.5385968 L100.527205,55.1838969 C100.743747,54.3021302 100.96029,53.1999218 101.393374,52.0977135" id="Fill-9"></path>
                    <polygon id="Fill-11" points="10.1928756 55.647945 22.9881875 55.647945 22.9881875 48.1892643 10.1928756 48.1892643 10.1928756 43.2878456 24.2894057 43.2878456 19.3014028 35.1898494 0 34.9767442 0 68.8604651 27.3255814 68.8604651 27.3255814 61.4017844 10.1928756 61.4017844"></polygon>
                    <polygon id="Fill-13" points="45.685605 34.9767442 39.8953488 46.2713178 34.3195467 34.9767442 22.9534884 34.9767442 34.7484545 55.4348398 34.7484545 68.8604651 44.6133353 68.8604651 44.6133353 55.4348398 56.8372093 34.9767442"></polygon>
                    <polygon id="Fill-15" points="66.6744186 0 0 25.1395349 66.6744186 13.0108119"></polygon>
                </g>
                <rect id="Rectangle" x="0" y="0" width="200" height="140"></rect>
            </g>
        </g>
    </g>
</svg>