<?xml version="1.0" encoding="UTF-8"?>
<svg width="188px" height="42px" viewBox="0 0 188 42" version="1.1" xmlns="http://www.w3.org/2000/svg" xmlns:xlink="http://www.w3.org/1999/xlink">
    <!-- Generator: Sketch 55.2 (78181) - https://sketchapp.com -->
    <title>ferrari</title>
    <desc>Created with Sketch.</desc>
    <g id="Page-1" stroke="none" stroke-width="1" fill="none" fill-rule="evenodd">
        <g id="Artboard-Copy-3" transform="translate(-6.000000, -49.000000)">
            <g id="ferrari">
                <g id="Ferrari" transform="translate(6.000000, 49.000000)" fill="#FFFFFF" fill-rule="nonzero">
                    <path d="M0.094,40.85 L0.094,36.946 L2.264,36.946 C3.348,36.946 5.517,36.728 5.517,34.126 L5.517,10.699 C5.517,9.289 5.409,5.927 2.698,5.927 L0.203,5.927 L3.023,0.938 L169.872,0.938 L169.872,5.927 L16.363,5.927 C14.953,5.927 13.109,6.253 13.109,9.072 L13.109,16.447 C13.435,17.315 14.736,17.64 15.387,17.64 C16.038,17.64 18.315,17.532 18.315,13.953 L21.569,13.953 L21.569,25.991 L18.315,25.991 C18.315,24.907 17.117,23.09 15.495,22.955 C14.194,22.846 13.109,23.28 13.109,25.015 L13.109,34.126 C13.109,35.102 14.302,36.946 17.122,36.946 L19.074,36.946 L19.074,40.85 L0.094,40.85" id="Fill-2"></path>
                    <path d="M96.382,11.567 C96.382,12.434 97.467,13.302 98.117,13.519 C98.876,12.977 102.889,10.699 106.034,10.699 C109.18,10.699 110.806,12.326 110.806,14.821 L110.806,26.751 L103.214,26.751 L103.214,17.532 C103.214,16.339 102.889,15.471 101.805,15.363 C100.72,15.254 97.9,17.532 97.141,18.616 L97.141,35.102 C97.141,36.62 98.659,37.705 99.961,37.705 L99.961,40.85 L86.729,40.85 L86.729,37.596 C88.031,37.596 89.441,37.162 89.549,35.21 L89.549,16.881 C89.549,16.339 88.682,14.821 86.729,14.821 L86.729,11.567 L96.382,11.567" id="Fill-3"></path>
                    <path d="M187.181,11.567 L173.95,11.567 L173.95,14.821 C175.902,14.821 176.769,16.339 176.769,16.881 L176.769,35.21 C176.661,37.162 175.251,37.596 173.95,37.596 L173.95,40.85 L187.181,40.85 L187.181,37.705 C185.88,37.705 184.361,36.62 184.361,35.102 L184.361,17.098 C184.361,15.797 185.771,14.821 187.181,14.821 L187.181,11.567" id="Fill-4"></path>
                    <path d="M67.099,11.567 C67.099,12.434 68.183,13.302 68.834,13.519 C69.593,12.977 73.606,10.699 76.751,10.699 C79.897,10.699 81.523,12.326 81.523,14.821 L81.523,26.751 L73.932,26.751 L73.932,17.532 C73.932,16.339 73.606,15.471 72.522,15.363 C71.437,15.254 68.617,17.532 67.858,18.616 L67.858,35.102 C67.858,36.62 69.376,37.705 70.678,37.705 L70.678,40.85 L57.446,40.85 L57.446,37.596 C58.748,37.596 60.158,37.162 60.266,35.21 L60.266,16.881 C60.266,16.339 59.398,14.821 57.446,14.821 L57.446,11.567 L67.099,11.567" id="Fill-5"></path>
                    <path d="M155.078,11.567 C155.078,12.434 156.163,13.302 156.814,13.519 C157.573,12.977 161.585,10.699 164.731,10.699 C167.876,10.699 169.503,12.326 169.503,14.821 L169.503,26.751 L161.911,26.751 L161.911,17.532 C161.911,16.339 161.585,15.471 160.501,15.363 C159.416,15.254 156.596,17.532 155.837,18.616 L155.837,35.102 C155.837,36.62 157.356,37.705 158.657,37.705 L158.657,40.85 L145.426,40.85 L145.426,37.596 C146.727,37.596 148.137,37.162 148.245,35.21 L148.245,16.881 C148.245,16.339 147.378,14.821 145.426,14.821 L145.426,11.567 L155.078,11.567" id="Fill-6"></path>
                    <path d="M51.72,31.739 L44.128,31.739 L44.128,34.668 C44.128,35.861 43.911,38.355 40.332,38.355 C36.753,38.355 35.668,35.969 35.668,34.234 L35.668,28.052 C35.668,27.51 36.102,26.751 36.861,26.751 L51.72,26.751 L51.72,18.833 C51.72,15.254 50.96,14.17 49.442,12.652 C47.924,11.133 42.609,10.699 40.223,10.699 C34.15,10.699 32.197,11.567 30.462,12.977 C28.727,14.387 28.076,17.315 28.076,19.484 L28.076,31.739 C28.076,34.993 28.727,37.271 30.787,39.332 C32.848,41.392 39.139,41.392 40.44,41.392 C41.742,41.392 46.08,41.501 49.225,39.223 C52.37,36.946 51.72,31.739 51.72,31.739 Z M35.668,18.291 C35.668,16.556 36.21,13.953 40.007,13.953 C43.802,13.953 44.128,16.773 44.128,18.291 L44.128,22.195 C44.128,22.846 43.585,23.497 42.826,23.497 L36.97,23.497 C36.319,23.497 35.668,22.955 35.668,22.304 L35.668,18.291 Z" id="Fill-7"></path>
                    <path d="M138.701,35.102 L138.701,18.833 C138.701,16.339 138.593,13.736 135.99,11.892 C133.387,10.048 129.157,10.157 127.53,10.157 C125.903,10.157 120.481,10.157 117.986,12.977 C115.492,15.797 115.925,18.508 115.925,19.592 L123.029,19.592 C123.029,19.592 123.518,15.905 124.493,14.929 C125.476,13.947 128.072,12.868 130.079,14.603 C130.818,15.243 131.109,16.068 131.109,16.99 L131.109,21.653 C131.109,22.087 130.676,22.737 130.133,22.737 C130.133,22.737 120.264,22.955 118.529,24.256 C116.793,25.557 115.275,26.425 115.275,31.197 C115.275,35.969 116.468,37.813 117.878,38.789 C119.288,39.765 119.938,40.85 126.337,40.85 L141.521,40.85 L141.521,37.705 C140.22,37.705 138.701,36.62 138.701,35.102 Z M131.109,36.946 C131.109,37.217 130.676,37.596 130.35,37.596 L126.608,37.596 C123.951,37.596 123.192,35.318 123.192,33.909 L123.192,29.733 C123.192,25.666 127.422,25.775 129.103,25.775 C130.784,25.775 131.109,27.184 131.109,28.106 L131.109,36.946 Z" id="Fill-8"></path>
                    <path d="M180.067,5.873 C183.864,5.873 186.941,4.719 186.941,3.296 C186.941,1.872 183.864,0.718 180.067,0.718 C176.271,0.718 173.193,1.872 173.193,3.296 C173.193,4.719 176.271,5.873 180.067,5.873" id="Fill-9"></path>
                </g>
                <rect id="Rectangle" x="0" y="0" width="200" height="140"></rect>
            </g>
        </g>
    </g>
</svg>