<?xml version="1.0" encoding="UTF-8"?>
<svg width="188px" height="63px" viewBox="0 0 188 63" version="1.1" xmlns="http://www.w3.org/2000/svg" xmlns:xlink="http://www.w3.org/1999/xlink">
    <!-- Generator: Sketch 55.2 (78181) - https://sketchapp.com -->
    <title>google</title>
    <desc>Created with Sketch.</desc>
    <g id="Page-1" stroke="none" stroke-width="1" fill="none" fill-rule="evenodd">
        <g id="Artboard-Copy-7" transform="translate(-6.000000, -39.000000)">
            <g id="google">
                <g id="Google" transform="translate(6.000000, 39.000000)" fill="#FFFFFF" fill-rule="nonzero">
                    <path d="M79.6821192,32.9933775 C79.6821192,41.9536304 72.6945457,48.5562914 64.1192053,48.5562914 C55.5438649,48.5562914 48.5562914,41.9536304 48.5562914,32.9933775 C48.5562914,23.9699747 55.5438649,17.4304636 64.1192053,17.4304636 C72.6945457,17.4304636 79.6821192,23.9699747 79.6821192,32.9933775 Z M72.8694099,32.9933775 C72.8694099,27.3940964 68.819555,23.5630095 64.1192053,23.5630095 C59.4188556,23.5630095 55.3690007,27.3940964 55.3690007,32.9933775 C55.3690007,38.5365254 59.4188556,42.4237455 64.1192053,42.4237455 C68.819555,42.4237455 72.8694099,38.5295087 72.8694099,32.9933775 Z" id="Shape"></path>
                    <path d="M113.298013,32.9933775 C113.298013,41.9536304 106.31044,48.5562914 97.7350993,48.5562914 C89.159759,48.5562914 82.1721854,41.9536304 82.1721854,32.9933775 C82.1721854,23.9769914 89.159759,17.4304636 97.7350993,17.4304636 C106.31044,17.4304636 113.298013,23.9699747 113.298013,32.9933775 Z M106.485304,32.9933775 C106.485304,27.3940964 102.435449,23.5630095 97.7350993,23.5630095 C93.0347496,23.5630095 88.9848947,27.3940964 88.9848947,32.9933775 C88.9848947,38.5365254 93.0347496,42.4237455 97.7350993,42.4237455 C102.435449,42.4237455 106.485304,38.5295087 106.485304,32.9933775 Z" id="Shape"></path>
                    <path d="M146.913907,18.3655468 L146.913907,46.1528715 C146.913907,57.5832176 140.125373,62.2516556 132.100004,62.2516556 C124.545476,62.2516556 119.998704,57.2343059 118.284002,53.1311048 L124.243295,50.6677885 C125.304443,53.1869307 127.904606,56.1596581 132.092977,56.1596581 C137.230056,56.1596581 140.4135,53.0124748 140.4135,47.0879549 L140.4135,44.8618984 L140.174565,44.8618984 C138.642577,46.7390432 135.691041,48.378928 131.966483,48.378928 C124.17302,48.378928 117.033113,41.6379546 117.033113,32.9640108 C117.033113,24.2272627 124.17302,17.4304636 131.966483,17.4304636 C135.684014,17.4304636 138.63555,19.0703484 140.174565,20.8916672 L140.4135,20.8916672 L140.4135,18.3725251 L146.913907,18.3725251 L146.913907,18.3655468 Z M140.898394,32.9640108 C140.898394,27.5140105 137.237084,23.5294394 132.577873,23.5294394 C127.855414,23.5294394 123.898949,27.5140105 123.898949,32.9640108 C123.898949,38.3581851 127.855414,42.2869304 132.577873,42.2869304 C137.237084,42.2869304 140.898394,38.3581851 140.898394,32.9640108 Z" id="Shape"></path>
                    <polygon id="Shape" points="158.119205 2.49006623 158.119205 48.5562914 150.649007 48.5562914 150.649007 2.49006623"></polygon>
                    <path d="M182.414241,38.1225434 L187.706013,41.6589315 C185.998086,44.1919395 181.882265,48.5562914 174.770572,48.5562914 C165.950954,48.5562914 159.364238,41.7220813 159.364238,32.9933775 C159.364238,23.7384256 166.006951,17.4304636 174.007606,17.4304636 C182.064257,17.4304636 186.005086,23.8577085 187.29303,27.3309467 L188,29.0991406 L167.245898,37.7155782 C168.834829,40.8379843 171.305722,42.4307622 174.770572,42.4307622 C178.242422,42.4307622 180.650318,40.7187012 182.414241,38.1225434 Z M166.125946,32.5232624 L179.999346,26.7485653 C179.236379,24.8049552 176.940478,23.4507431 174.238595,23.4507431 C170.773746,23.4507431 165.950954,26.5170162 166.125946,32.5232624 Z" id="Shape"></path>
                    <path d="M23.9769519,28.860258 L23.9769519,22.2267693 L45.7436037,22.2267693 C45.9563966,23.3828714 46.0662252,24.7504557 46.0662252,26.2308305 C46.0662252,31.2077094 44.7414179,37.3618386 40.4718318,41.7465676 C36.3189386,46.1876918 31.0128454,48.5562914 23.9838163,48.5562914 C10.9554009,48.5562914 0,37.6579136 0,24.2781457 C0,10.8983778 10.9554009,0 23.9838163,0 C31.1913168,0 36.325803,2.90435424 40.1835319,6.68988393 L35.6256458,11.3706879 C32.8593383,8.70601334 29.1114381,6.6334887 23.9769519,6.6334887 C14.4630512,6.6334887 7.02216486,14.5076724 7.02216486,24.2781457 C7.02216486,34.048619 14.4630512,41.9228027 23.9769519,41.9228027 C30.1479453,41.9228027 33.6624599,39.377968 35.9139458,37.0657636 C37.739846,35.1906224 38.941096,32.511849 39.4147318,28.8532086 L23.9769519,28.860258 Z" id="Shape"></path>
                </g>
                <rect id="Rectangle" x="0" y="0" width="200" height="140"></rect>
            </g>
        </g>
    </g>
</svg>