<?xml version="1.0" encoding="UTF-8"?>
<svg width="188px" height="33px" viewBox="0 0 188 33" version="1.1" xmlns="http://www.w3.org/2000/svg" xmlns:xlink="http://www.w3.org/1999/xlink">
    <!-- Generator: Sketch 55.2 (78181) - https://sketchapp.com -->
    <title>hsbc</title>
    <desc>Created with Sketch.</desc>
    <g id="Page-1" stroke="none" stroke-width="1" fill="none" fill-rule="evenodd">
        <g id="Artboard-Copy-2" transform="translate(-6.000000, -54.000000)">
            <g id="hsbc">
                <g id="HSBC" transform="translate(6.000000, 54.000000)" fill="#FFFFFF" fill-rule="nonzero">
                    <path d="M24.2259924,18.287818 C24.2014386,18.287818 24.2259924,29.6641643 24.2259924,29.6641643 C24.2259924,31.0937865 22.9897653,32.3425785 21.3745569,32.3425785 C20.5215816,32.3425785 19.8287394,32.3425785 19.8287394,32.3425785 L19.8287394,32.9265537 L32.9265537,32.9265537 L32.9265537,32.3425785 C32.9265537,32.3425785 32.2305087,32.3425785 31.3786011,32.3425785 C29.7879462,32.3425785 28.5303683,31.0714487 28.5303683,29.6641643 L28.5303683,18.1101789 C28.5303683,18.1101789 28.5303683,6.15198487 28.5303683,4.32240884 C28.5303683,2.93746233 29.7612575,1.64186721 31.3786011,1.64186721 C32.2305087,1.64186721 32.9265537,1.64186721 32.9265537,1.64186721 L32.9265537,1.06214689 L19.8287394,1.06214689 L19.8287394,1.64186721 C19.8287394,1.64186721 20.5215816,1.64186721 21.3745569,1.64186721 C23.012184,1.64186721 24.2259924,2.93746233 24.2259924,4.32240884 C24.2259924,6.15198487 24.2259924,16.6784293 24.2259924,16.6784293 L8.70483152,16.6784293 C8.70483152,16.6784293 8.70483152,6.15198487 8.70483152,4.32240884 C8.70483152,2.93746233 9.95920692,1.64186721 11.5519968,1.64186721 C12.404972,1.64186721 13.0967468,1.64186721 13.0967468,1.64186721 L13.0967468,1.06214689 L0,1.06214689 L0,1.64186721 C0,1.64186721 0.698180012,1.64186721 1.55115529,1.64186721 C3.16636379,1.64186721 4.39938812,2.93746233 4.39938812,4.32240884 C4.39938812,6.15198487 4.39938812,18.1101789 4.39938812,18.1101789 L4.39938812,29.6641643 C4.39938812,31.0714487 3.16636379,32.3425785 1.55115529,32.3425785 C0.698180012,32.3425785 0,32.3425785 0,32.3425785 L0,32.9265537 L13.0967468,32.9265537 L13.0967468,32.3425785 C13.0967468,32.3425785 12.404972,32.3425785 11.5519968,32.3425785 C9.95920692,32.3425785 8.70483152,31.0714487 8.70483152,29.6641643 C8.70483152,29.6641643 8.72725015,18.287818 8.70483152,18.287818 L24.2259924,18.287818" id="Fill-2"></path>
                    <path d="M56.2859503,24.1054722 C56.4007929,25.9857075 55.2406699,28.83811 53.626493,30.300634 C52.0782445,31.7044007 49.8749677,32.9265537 46.9262772,32.9265537 C43.576701,32.9265537 40.6939386,31.1307152 39.6412147,30.7226187 C39.0063902,30.4790427 38.1737813,30.5089556 37.6771933,30.8176987 C37.0976635,31.1745161 36.739312,31.7588848 36.6042655,32.8368152 L36.1129944,32.8368152 L36.1129944,21.7455631 L36.6042655,21.7455631 C37.0519391,25.1588313 38.6363418,27.1608546 39.6210108,28.3039523 C41.2298709,30.1638896 44.2678833,31.2193854 47.1942433,30.7503949 C49.5187429,30.3700745 52.0654842,27.8370984 51.7836944,24.697319 C51.6858656,23.5649045 51.4349132,21.9196986 49.0933999,20.3770509 C47.621713,19.4112936 45.5322155,18.0427814 43.5522437,16.7212751 C41.0512268,15.0547028 38.7830852,13.2513862 38.1429439,12.5217266 C37.3113983,11.5677208 36.269308,10.1885254 36.269308,7.9877954 C36.269308,6.10542339 36.9828209,3.9495626 38.5044854,2.5137465 C40.02296,1.0779304 42.0794935,0 45.0271207,0 C47.9758111,0 50.208862,1.5725605 50.9691625,1.92937789 C51.7294632,2.2872636 52.5684523,2.20286668 53.0448365,1.92937789 C53.5159039,1.65909405 53.828531,1.25206583 53.9646408,0.181613644 L54.4516585,0.181613644 L54.4516585,10.6810189 L53.9646408,10.6810189 C53.5159039,7.26988734 52.0420903,4.71233991 51.0127603,3.76794896 C49.9855568,2.82676295 47.9758111,1.52555461 44.9835229,2.11099153 C42.1103309,2.6654473 40.7120157,3.97199722 40.4461763,6.28169545 C40.2462652,8.04014285 41.1958434,9.12555146 41.7434725,9.78363384 C42.8621247,11.1329163 49.9494027,15.1668759 53.1575524,17.9530429 C54.8142634,19.3909956 56.1094329,21.0981638 56.2859503,24.1054722" id="Fill-3"></path>
                    <path d="M76.3073146,16.5700967 C81.9813558,18.5295811 83.5991697,22.5629957 82.5457836,26.714065 C81.3095697,31.5999409 75.8353636,32.5946573 74.0602328,32.8342449 C73.2598295,32.9337166 71.2157716,32.9230207 69.1940356,32.9251598 C65.5831855,32.9305077 61.0209928,32.9187423 57.3559322,32.9187423 L57.3559322,32.3315388 C57.3559322,32.3315388 58.3402264,32.3315388 59.2320436,32.3315388 C60.4257394,32.3315388 61.7905705,31.3218481 61.7905705,29.7923379 C61.7905705,29.7923379 61.7905705,5.73945322 61.7905705,4.2131518 C61.7905705,2.68364161 60.4257394,1.64828087 59.244799,1.64828087 C58.3508558,1.64828087 57.3686876,1.64828087 57.3686876,1.64828087 L57.3686876,1.06214689 C60.6021895,1.06214689 65.3195733,1.06214689 68.6891331,1.06214689 C71.4145436,1.06214689 72.8931107,1.32847419 73.8476423,1.5167216 C75.4558896,1.82797157 80.1466995,3.22271373 81.2606739,7.62727524 C82.1248543,11.0360508 80.4368856,15.3357927 76.3073146,16.5700967 Z M66.0317515,15.6716431 C67.594292,16.0748777 72.1979397,16.1818364 73.9826372,15.0427257 C76.7803285,13.2522361 77.7497414,10.3878807 77.2352723,7.84867986 C76.9248901,6.32665679 76.1223609,4.91907958 74.7415854,3.94361573 C72.0161749,2.01194063 68.087502,2.32319061 66.0317515,2.95210808 L66.0317515,15.6716431 Z M66.0317515,31.1175569 C68.2384413,31.8063713 72.4371041,32.3315388 75.3644757,30.2255209 C78.8764712,27.6959463 79.6173491,21.5158695 74.6586751,18.2953414 C72.663513,16.9979317 67.6846429,17.0899162 66.0317515,17.4781766 L66.0317515,31.1175569 Z" id="Fill-4"></path>
                    <path d="M113.21552,1.49325471 L113.685025,12.1408225 L113.024682,12.1628541 C112.704811,9.47184894 111.660623,7.57503126 110.336684,6.34545699 C109.953923,5.9866563 109.232859,5.26695667 108.191924,4.63538353 C106.460284,3.57681659 103.878549,2.63994813 100.813212,3.16975616 C96.212495,3.96184539 93.842199,6.90568964 92.6624724,9.73832664 C91.1986574,13.221421 90.2769961,19.1710078 92.7470484,24.1984139 C94.7573544,28.2742638 98.614236,29.9717478 101.586323,30.4081837 C104.122518,30.7869178 109.742484,30.6715141 114.027667,25.0765315 L114.711864,25.5171638 C111.386293,30.0588251 106.963403,32.9690974 101.904025,32.9260832 C95.4393838,32.8673323 91.3743152,29.4230556 89.5158122,27.3720166 C87.5543,25.2129176 86.0536185,21.1118888 86.0338983,17.5385696 C86.020005,14.3649671 86.7421537,10.8304656 87.9186273,8.76473881 C89.9484509,5.22079517 94.1848401,1.69049017 99.7657705,1.16592776 C103.943607,0.766211208 106.689074,1.56144782 109.036599,2.85921522 C110.213073,3.51072173 110.871247,3.58625871 111.509905,3.32502663 C112.144224,3.05959806 112.659271,2.53293739 112.659271,1.49325471 L113.21552,1.49325471" id="Fill-5"></path>
                    <polyline id="Fill-6" points="124.271186 16.9980759 140.20339 32.9265537 140.20339 1.06214689 124.271186 16.9980759"></polyline>
                    <polyline id="Fill-7" points="140.20339 31.8644068 172.067797 31.8644068 156.13719 15.9322034 140.20339 31.8644068"></polyline>
                    <polyline id="Fill-8" points="156.13719 16.9943503 172.067797 1.06214689 140.20339 1.06214689 156.13719 16.9943503"></polyline>
                    <polyline id="Fill-9" points="172.067797 1.06214689 172.067797 32.9265537 188 16.9980759 172.067797 1.06214689"></polyline>
                </g>
                <rect id="Rectangle" x="0" y="0" width="200" height="140"></rect>
            </g>
        </g>
    </g>
</svg>