<?xml version="1.0" encoding="UTF-8"?>
<svg width="200px" height="140px" viewBox="0 0 200 140" version="1.1" xmlns="http://www.w3.org/2000/svg" xmlns:xlink="http://www.w3.org/1999/xlink">
    <!-- Generator: Sketch 55.2 (78181) - https://sketchapp.com -->
    <title>Artboard</title>
    <desc>Created with Sketch.</desc>
    <defs>
        <polygon id="path-1" points="0 0.0971729156 143.567662 0.0971729156 143.567662 94.6554826 0 94.6554826"></polygon>
        <polygon id="path-3" points="0 94.8100529 143.567713 94.8100529 143.567713 0.251743305 0 0.251743305"></polygon>
        <polygon id="path-5" points="0 94.8100529 143.567713 94.8100529 143.567713 0.251743305 0 0.251743305"></polygon>
        <polygon id="path-7" points="0 94.8100529 143.567713 94.8100529 143.567713 0.251743305 0 0.251743305"></polygon>
        <polygon id="path-9" points="0 94.8100529 143.567713 94.8100529 143.567713 0.251743305 0 0.251743305"></polygon>
        <polygon id="path-11" points="0 94.8100529 143.567713 94.8100529 143.567713 0.251743305 0 0.251743305"></polygon>
    </defs>
    <g id="Artboard" stroke="none" stroke-width="1" fill="none" fill-rule="evenodd">
        <g id="Intel">
            <g id="intel" transform="translate(28.000000, 22.000000)">
                <g id="Group-3" transform="translate(0.000000, 0.045872)">
                    <g id="Fill-1-Clipped">
                        <g>
                            <mask id="mask-2" fill="white">
                                <use xlink:href="#path-1"></use>
                            </mask>
                            <g id="path-1"></g>
                            <path d="M142.931414,26.9562199 C136.202186,-5.85625415 72.4122658,-7.93640908 31.2925635,17.062708 L31.2925635,19.8238287 C72.3653828,-1.26571498 130.625374,-1.13757765 135.92971,29.0887376 C137.709249,39.0874781 132.069925,49.5043644 121.995113,55.5024002 L121.995113,63.3452112 C134.11463,58.9054662 146.545694,44.5455247 142.931414,26.9562199 M68.1965732,84.3894409 C39.8272932,87.00304 10.2582107,82.8862816 6.1163714,60.7431924 C4.09031834,49.8276028 9.07630436,38.2524455 15.6810155,31.0576218 L15.6810155,27.2157673 C3.78280593,37.6379401 -2.66512435,50.8250096 1.04871814,66.4023818 C5.79323132,86.3827445 31.1640133,97.6973473 69.9002423,93.9400784 C85.2327606,92.4563034 105.284838,87.5322044 119.234055,79.8797115 L119.234055,69.0162325 C106.57387,76.5501544 85.63782,82.7735007 68.1965732,84.3894409" id="Fill-1" fill="#FFFFFF" fill-rule="nonzero" mask="url(#mask-2)"></path>
                        </g>
                    </g>
                </g>
                <path d="M117,22.0458716 L110,22.0458716 L110,55.2337265 C110,59.1231335 111.766486,62.5052483 117,63.0458716 L117,22.0458716 Z" id="Fill-4" fill="#FFFFFF" fill-rule="nonzero"></path>
                <path d="M28,34.0458716 L21.0037864,34.0458716 L21,55.3646254 C21,59.2021451 22.7677485,62.5240067 28,63.0458716 L28,34.0458716 Z" id="Fill-6" fill="#FFFFFF" fill-rule="nonzero"></path>
                <g id="Fill-8-Clipped" transform="translate(0.000000, 0.045872)">
                    <g>
                        <mask id="mask-4" fill="white">
                            <use xlink:href="#path-3"></use>
                        </mask>
                        <g id="path-3"></g>
                        <polygon id="Fill-8" fill="#FFFFFF" fill-rule="nonzero" mask="url(#mask-4)" points="20.919918 30.3808855 28.3486111 30.3808855 28.3486111 23.3388701 20.919918 23.3388701"></polygon>
                    </g>
                </g>
                <g id="Fill-10-Clipped" transform="translate(0.000000, 0.045872)">
                    <g>
                        <mask id="mask-6" fill="white">
                            <use xlink:href="#path-5"></use>
                        </mask>
                        <g id="path-5"></g>
                        <path d="M72.9184767,63.4763694 C66.898039,63.4763694 64.3499711,59.2971788 64.3499711,55.1801688 L64.3499711,26.4779076 L71.7234633,26.4779076 L71.7234633,34.4133601 L77.2765828,34.4133601 L77.2765828,40.3615509 L71.7234633,40.3615509 L71.7234633,54.7250169 C71.7234633,56.4036413 72.5214832,57.3388676 74.2740518,57.3388676 L77.2765828,57.3388676 L77.2765828,63.4763694 L72.9184767,63.4763694" id="Fill-10" fill="#FFFFFF" fill-rule="nonzero" mask="url(#mask-6)"></path>
                    </g>
                </g>
                <g id="Fill-11-Clipped" transform="translate(0.000000, 0.045872)">
                    <g>
                        <mask id="mask-8" fill="white">
                            <use xlink:href="#path-7"></use>
                        </mask>
                        <g id="path-7"></g>
                        <path d="M92.4801475,40.0112752 C89.9562772,40.0112752 88.0171847,41.3095155 87.1952191,43.060642 C86.7165584,44.1131807 86.5411252,44.9333603 86.4866802,46.2268175 L97.8505241,46.2268175 C97.7063461,43.060642 96.2691038,40.0112752 92.4801475,40.0112752 M86.4866802,51.2480894 C86.4866802,55.0169385 88.84646,57.7863666 93.0210669,57.7863666 C96.2925453,57.7863666 97.9049689,56.8798389 99.7936497,55.0169385 L104.350127,59.3517064 C101.429011,62.2339155 98.368002,63.9860489 92.9668741,63.9860489 C85.9104727,63.9860489 79.1492326,60.1396629 79.1492326,48.9260092 C79.1492326,39.3393724 85.0575037,33.920346 92.8030356,33.920346 C100.67737,33.920346 105.202843,40.2640256 105.202843,48.5914423 L105.202843,51.2480894 L86.4866802,51.2480894" id="Fill-11" fill="#FFFFFF" fill-rule="nonzero" mask="url(#mask-8)"></path>
                    </g>
                </g>
                <g id="Fill-12-Clipped" transform="translate(0.000000, 0.045872)">
                    <g>
                        <mask id="mask-10" fill="white">
                            <use xlink:href="#path-9"></use>
                        </mask>
                        <g id="path-9"></g>
                        <path d="M48.3986723,40.3614754 C50.5608373,40.3614754 51.4596811,41.4291187 51.4596811,43.1618679 L51.4596811,63.519342 L58.8346856,63.519342 L58.8346856,43.1190716 C58.8346856,38.9854465 56.6294183,34.4210886 50.1530053,34.4210886 L34.918286,34.4132846 L34.918286,63.519342 L42.2963153,63.519342 L42.2963153,40.3614754 L48.3986723,40.3614754 Z" id="Fill-12" fill="#FFFFFF" fill-rule="nonzero" mask="url(#mask-10)"></path>
                    </g>
                </g>
                <g id="Fill-13-Clipped" transform="translate(0.000000, 0.045872)">
                    <g>
                        <mask id="mask-12" fill="white">
                            <use xlink:href="#path-11"></use>
                        </mask>
                        <g id="path-11"></g>
                        <path d="M125.539294,24.5272243 C125.539294,24.170504 125.31723,24.0577231 124.842098,24.0577231 L124.499298,24.0577231 L124.370748,24.0577231 L124.370748,25.0707382 C124.444852,25.0707382 124.779839,25.0863461 124.842098,25.0863461 C125.31723,25.0863461 125.539294,24.9279996 125.539294,24.5896566 L125.539294,24.5272243 Z M126.255899,27.0602655 L125.702629,27.0602655 C125.652217,27.0602655 125.609367,27.0290493 125.589958,26.9865047 L124.842098,25.7164598 C124.818908,25.6892714 124.75665,25.6580552 124.73699,25.6580552 L124.518958,25.6580552 L124.39444,25.6580552 L124.39444,26.9240723 C124.39444,26.9865047 124.351339,27.0602655 124.269923,27.0602655 L123.771098,27.0602655 C123.696993,27.0602655 123.64658,26.9865047 123.64658,26.9240723 L123.64658,23.7309603 C123.64658,23.5441667 123.708839,23.467385 123.872426,23.4439729 C124.05164,23.4245887 124.518958,23.4011765 124.779839,23.4011765 C125.702629,23.4011765 126.244304,23.6725557 126.244304,24.5272243 L126.244304,24.5896566 C126.244304,25.1175623 125.983423,25.4053049 125.578363,25.533694 L126.357227,26.8578638 C126.368821,26.8774998 126.376635,26.9240723 126.376635,26.9515123 C126.376635,27.0021127 126.349413,27.0602655 126.255899,27.0602655 Z M124.943678,22.8254395 C123.592136,22.8254395 122.505508,23.9409141 122.505508,25.2884961 C122.505508,26.6441337 123.592136,27.7399724 124.943678,27.7399724 C126.294716,27.7399724 127.416381,26.6441337 127.416381,25.2884961 C127.416381,23.9409141 126.294716,22.8254395 124.943678,22.8254395 Z M124.943678,28.2447177 C123.304032,28.2447177 121.995088,26.9240723 121.995088,25.2884961 C121.995088,23.6609756 123.304032,22.3325262 124.943678,22.3325262 C126.575006,22.3325262 127.914954,23.6609756 127.914954,25.2884961 C127.914954,26.9240723 126.575006,28.2447177 124.943678,28.2447177 Z" id="Fill-13" fill="#FFFFFF" fill-rule="nonzero" mask="url(#mask-12)"></path>
                    </g>
                </g>
            </g>
            <rect id="Rectangle" x="0" y="0" width="200" height="140"></rect>
        </g>
    </g>
</svg>