<?xml version="1.0" encoding="UTF-8"?>
<svg width="16px" height="16px" viewBox="0 0 16 16" version="1.1" xmlns="http://www.w3.org/2000/svg" xmlns:xlink="http://www.w3.org/1999/xlink">
    <!-- Generator: Sketch 55.2 (78181) - https://sketchapp.com -->
    <title>linkedin_icon</title>
    <desc>Created with Sketch.</desc>
    <g id="Symbols" stroke="none" stroke-width="1" fill="none" fill-rule="evenodd">
        <g id="Footer" transform="translate(-1199.000000, -205.000000)" fill="#FFFFFF" fill-rule="nonzero">
            <g id="linkedin_icon" transform="translate(1199.000000, 205.000000)">
                <g id="Group" transform="translate(2.625000, 2.666667)">
                    <path d="M2.325,10.6666667 L2.325,3.5375 L0.0375,3.5375 L0.0375,10.6666667 L2.325,10.6666667 L2.325,10.6666667 Z M1.26666667,2.45833333 C2.02916667,2.45833333 2.50416667,1.9125 2.50416667,1.22916667 C2.49166667,0.533333333 2.02916667,0 1.27916667,0 C0.529166667,0 0.0416666667,0.533333333 0.0416666667,1.22916667 C0.0416666667,1.9125 0.516666667,2.45833333 1.25,2.45833333 L1.26666667,2.45833333 L1.26666667,2.45833333 Z" id="Shape"></path>
                    <path d="M8.06666667,3.375 C6.85416667,3.375 6.33333333,4.05833333 6,4.53333333 L6,3.54166667 L3.70833333,3.54166667 L3.70833333,10.6666667 L6,10.6666667 L6,6.60833333 C6,6.4 6.01666667,6.19166667 6.07916667,6.04583333 C6.24583333,5.62916667 6.62083333,5.2 7.25416667,5.2 C8.08333333,5.2 8.41666667,5.8375 8.41666667,6.77083333 L8.41666667,10.6666667 L10.7083333,10.6666667 L10.7083333,6.50416667 C10.7083333,4.36666667 9.575,3.375 8.06666667,3.375 Z" id="Path"></path>
                </g>
                <path d="M14.7166667,0 L1.36666667,0 C0.6375,0 0,0.525 0,1.24583333 L0,14.625 C0,15.35 0.6375,15.9958333 1.36666667,15.9958333 L14.7125,15.9958333 C15.4458333,15.9958333 15.9958567,15.3458333 15.9958567,14.625 L15.9958567,1.24583333 C16,0.525 15.4458333,0 14.7166667,0 Z M14.5833333,14.6666667 C14.5375,14.6666667 1.5375,14.6666667 1.4625,14.6666667 C1.3875,14.6666667 1.33333333,14.6083333 1.33333333,14.5375 C1.33333333,14.4666667 1.33333333,1.4625 1.33333333,1.41666667 C1.33333333,1.37083333 1.375,1.33333333 1.41666667,1.33333333 C1.45833333,1.33333333 14.5416667,1.33333333 14.5833333,1.33333333 C14.625,1.33333333 14.6666667,1.375 14.6666667,1.41666667 C14.6666667,2.3875 14.6666667,14.5375 14.6666667,14.5833333 C14.6666667,14.6208333 14.6291667,14.6666667 14.5833333,14.6666667 Z" id="Shape"></path>
            </g>
        </g>
    </g>
</svg>