<?xml version="1.0" encoding="UTF-8"?>
<svg width="188px" height="22px" viewBox="0 0 188 22" version="1.1" xmlns="http://www.w3.org/2000/svg" xmlns:xlink="http://www.w3.org/1999/xlink">
    <!-- Generator: Sketch 55.2 (78181) - https://sketchapp.com -->
    <title>lloydsbank</title>
    <desc>Created with Sketch.</desc>
    <g id="Page-1" stroke="none" stroke-width="1" fill="none" fill-rule="evenodd">
        <g id="Artboard-Copy-5" transform="translate(-6.000000, -59.000000)">
            <g id="lloydsbank">
                <g transform="translate(6.000000, 59.000000)" fill="#FFFFFF" fill-rule="nonzero" id="Fill-2">
                    <path d="M0,21.160208 L10.8111689,21.160208 L11.8676803,18.0645421 L11.8676803,18.0406116 L3.50247121,18.0406116 L3.50247121,1.43821721 L0,1.43821721 L0,21.160208 Z M15.2361808,21.160208 L26.0466865,21.160208 L27.1038611,18.0645421 L27.1038611,18.0406116 L18.7379889,18.0406116 L18.7379889,1.43821721 L15.2361808,1.43821721 L15.2361808,21.160208 Z M28.1132839,11.2437073 C28.1132839,17.3998082 32.3572363,21.6614173 38.103385,21.6614173 C43.9291201,21.6614173 48.1730725,17.3998082 48.1730725,11.2437073 C48.1730725,4.92009356 43.9291201,0.937007874 38.103385,0.937007874 C32.3572363,0.937007874 28.1132839,4.92009356 28.1132839,11.2437073 Z M31.7245233,11.2437073 C31.7245233,7.17620044 34.281241,4.02868534 38.1299137,4.02868534 C42.004452,4.02868534 44.5611699,7.17620044 44.5611699,11.2437073 C44.5611699,15.4494788 41.9520576,18.5139022 38.1299137,18.5139022 C34.3336356,18.5139022 31.7245233,15.4494788 31.7245233,11.2437073 Z M68.9484769,21.160208 L75.4268217,21.160208 C80.2006879,21.160208 85.5177324,18.2074599 85.5177324,11.2988803 C85.5177324,3.88975601 80.2006879,1.43821721 75.4268217,1.43821721 L68.9484769,1.43821721 L68.9484769,21.160208 Z M72.2002505,18.0957846 L72.2002505,4.44680297 L74.9101724,4.44680297 C78.2654084,4.44680297 82.0331681,5.64465355 82.0331681,11.2988803 C82.0331681,16.6194105 78.2654084,18.0957846 74.9101724,18.0957846 L72.2002505,18.0957846 Z M100.350011,2.39211041 C98.8511316,1.41628101 96.9377383,1.21553135 95.2239747,1.21553135 C91.5019774,1.21553135 87.693098,2.71982431 87.693098,6.73082873 C87.693098,10.4081367 90.3977139,11.5767389 92.898058,12.3298825 C95.4859471,13.1089506 97.9750163,13.7111996 97.7170232,15.7559212 C97.4829062,17.6111936 96.0748876,18.1350039 93.4863351,18.1336744 C91.9715379,18.1330096 90.0156985,17.7128979 87.8423228,16.2890378 L86.3945108,19.3660911 C88.8013405,20.8876671 91.1823047,21.582314 93.8577391,21.582314 C97.8994091,21.582314 101.359434,19.6000774 101.359434,15.3663871 C101.359434,11.494312 97.8815022,10.6746951 95.3407017,9.59982035 C93.1341647,8.66653387 92.0060254,8.79482759 91.4150953,7.28056368 C90.4494453,4.80708883 94.8917009,3.74417917 99.1237154,5.53164868 L100.350011,2.39211041 Z M112.882239,21.160208 L119.969421,21.160208 C123.693408,21.160208 127.417395,19.7117527 127.417395,15.4222248 C127.417395,12.7752543 125.638636,11.1041132 123.165484,10.769752 L123.165484,10.7139144 C125.194278,10.1016945 126.583726,8.62465562 126.583726,6.39646763 C126.583726,2.80291602 123.52694,1.43821721 120.553056,1.43821721 L112.882239,1.43821721 L112.882239,21.160208 Z M116.384047,4.33512771 L119.1908,4.33512771 C121.831083,4.33512771 123.081918,5.03176882 123.081918,6.78666636 C123.081918,8.48572628 121.831083,9.46089101 119.496545,9.46089101 L116.384047,9.46089101 L116.384047,4.33512771 Z M116.384047,12.468812 L119.663676,12.468812 C122.498284,12.468812 123.915587,13.193372 123.915587,15.2547117 C123.915587,17.8451799 121.331014,18.2074599 119.5244,18.2074599 L116.384047,18.2074599 L116.384047,12.468812 Z M128.235147,21.160208 L132.154121,21.160208 L133.932881,16.6473294 C136.776773,17.260214 139.620666,17.2761677 142.465222,16.6473294 L144.299028,21.160208 L148.301568,21.160208 L139.824938,1.43821721 L136.795343,1.43821721 L128.235147,21.160208 Z M135.128005,13.6387437 L138.212647,5.61673466 L141.242242,13.6387437 C139.155084,14.1273231 137.119659,14.1053869 135.128005,13.6387437 Z M150.167209,21.160208 L153.533057,21.160208 L153.533057,6.44034002 L153.586114,6.44034002 L162.243141,21.160208 L166.516938,21.160208 L166.516938,1.43821721 L163.151754,1.43821721 L163.151754,15.803782 L163.098034,15.803782 L154.628036,1.43821721 L150.167209,1.43821721 L150.167209,21.160208 Z M170.851752,21.160208 L174.274637,21.160208 L174.274637,11.7495699 L183.080888,21.160208 L188,21.160208 L178.188968,10.9053578 L187.38851,1.43821721 L182.663722,1.43821721 L174.35754,10.2406238 L174.274637,10.2406238 L174.274637,1.43821721 L170.851752,1.43821721 L170.851752,21.160208 Z M59.2296333,14.8053516 L59.2296333,21.2838485 L55.5069726,21.2838485 L55.5069726,14.8053516 C54.5996861,13.470566 53.6652074,12.236155 52.5755349,10.3881948 C50.764941,7.31778871 49.2183091,4.8556143 48.03048,1.43821721 L52.2306599,1.43821721 C53.1916673,4.0958234 54.2329247,6.46427049 55.3544318,8.36540939 C56.0070414,9.47152663 56.6729155,10.40016 57.3494012,11.1074369 L57.3679713,11.1273788 L57.3872047,11.1074369 C58.0636905,10.40016 58.7295645,9.47152663 59.3821741,8.36540939 C60.503018,6.46427049 61.5449386,4.0958234 62.505946,1.43821721 L66.706126,1.43821721 C65.5182968,4.8556143 63.9716649,7.31778871 62.161071,10.3881948 C61.0713985,12.236155 60.1375831,13.470566 59.2296333,14.8053516 Z"></path>
                </g>
                <rect id="Rectangle" x="0" y="0" width="200" height="140"></rect>
            </g>
        </g>
    </g>
</svg>