<?xml version="1.0" encoding="UTF-8"?>
<svg width="188px" height="61px" viewBox="0 0 188 61" version="1.1" xmlns="http://www.w3.org/2000/svg" xmlns:xlink="http://www.w3.org/1999/xlink">
    <!-- Generator: Sketch 55.2 (78181) - https://sketchapp.com -->
    <title>singaporeair</title>
    <desc>Created with Sketch.</desc>
    <g id="Page-1" stroke="none" stroke-width="1" fill="none" fill-rule="evenodd">
        <g id="15&quot;-Macbook" transform="translate(-476.000000, -6693.000000)">
            <g id="singaporeair" transform="translate(470.000000, 6661.000000)">
                <g id="Singapore_Airlines" transform="translate(6.000000, 32.000000)" fill="#FFFFFF" fill-rule="nonzero">
                    <path d="M86.106,0.519 L106.6,21.015 C108.702,23.117 109.053,26.27 107.477,28.722 L100.294,40.459 L100.82,40.459 C101.169,40.459 101.52,40.283 101.695,39.934 L107.301,30.824 C108.002,29.774 109.228,29.073 110.629,29.073 L114.658,29.073 L119.213,33.627 L118.862,33.452 C117.462,32.926 115.884,33.452 115.008,34.679 L108.878,44.663 C108.002,46.064 106.251,47.115 104.498,47.115 L83.828,47.115 L91.361,35.028 C91.886,33.978 91.886,32.576 91.01,31.701 L79.273,20.139 C78.398,19.262 78.046,17.861 78.573,16.81 L80.324,13.132 L96.091,28.722 C96.965,29.774 97.14,31.174 96.44,32.226 L89.083,44.137 L104.148,44.137 C105.199,44.137 106.075,43.612 106.6,42.736 L112.206,33.627 C112.731,32.926 113.608,32.226 114.309,31.876 L114.834,31.701 L111.155,31.701 L111.331,31.701 C110.454,31.701 109.753,32.226 109.404,32.751 L103.973,41.51 C103.272,42.561 102.222,43.262 100.994,43.262 L95.038,43.262 L102.922,30.648 C104.148,28.722 103.797,26.094 102.046,24.343 L85.054,7.35 C84.178,6.476 84.003,5.248 84.353,4.022 L86.106,0.519" id="Fill-2"></path>
                    <path d="M83.127,6.826 L101.169,24.693 C102.747,26.27 103.096,28.722 101.871,30.474 L93.988,43.262 L90.66,43.262 L97.14,32.751 C98.017,31.35 97.842,29.248 96.616,28.021 L82.077,13.658 C81.376,12.781 81.025,11.38 81.55,10.329 L83.127,6.826" id="Fill-3"></path>
                    <polyline id="Fill-4" points="3.247 51.845 2.722 51.845 2.021 52.021 1.495 52.195 0.97 52.37 0.62 52.721 0.269 53.247 0.094 53.597 0.094 54.473 0.269 54.998 0.62 55.349 0.97 55.699 1.495 56.05 2.021 56.224 2.722 56.399 6.925 56.399 7.276 56.575 7.452 56.75 7.626 57.1 7.802 57.276 7.626 57.626 7.452 57.801 7.276 57.977 6.925 58.151 0.269 58.151 0.269 59.903 6.925 59.903 7.626 59.728 8.152 59.552 8.678 59.378 9.203 59.027 9.553 58.677 9.904 58.326 10.079 57.801 10.079 56.75 9.904 56.399 9.553 55.874 9.203 55.525 8.678 55.349 8.152 55.174 7.626 54.998 6.925 54.824 2.896 54.824 2.722 54.648 2.547 54.297 2.371 54.123 2.547 53.948 2.722 53.597 2.896 53.422 3.247 53.422 3.597 53.247 9.728 53.247 9.728 51.845 3.247 51.845"></polyline>
                    <polygon id="Fill-5" points="12.531 59.903 14.983 59.903 14.983 51.845 12.531 51.845"></polygon>
                    <polygon id="Fill-6" points="17.787 59.903 20.065 59.903 20.065 51.845 17.787 51.845"></polygon>
                    <polyline id="Fill-7" points="21.29 51.845 24.618 51.845 25.319 52.021 25.845 52.195 26.371 52.37 26.896 52.721 27.597 53.422 27.772 53.948 27.772 59.903 25.495 59.903 25.495 54.123 25.319 53.772 25.144 53.597 24.794 53.422 24.443 53.247 20.064 53.247 21.29 51.845"></polyline>
                    <polyline id="Fill-8" points="40.56 59.903 34.253 59.903 33.377 59.728 32.677 59.378 31.976 59.203 31.45 58.677 30.926 58.151 30.4 57.626 30.049 57.1 29.874 56.575 29.874 54.824 30.224 54.123 30.575 53.772 30.926 53.247 31.45 52.896 32.151 52.546 32.852 52.195 33.553 52.021 34.253 52.021 35.128 51.845 40.56 51.845 40.56 53.247 34.779 53.247 34.253 53.422 33.728 53.597 33.202 53.772 32.852 54.123 32.501 54.473 32.327 54.998 32.151 55.349 32.151 55.874 32.327 56.399 32.501 56.75 32.852 57.276 33.202 57.626 33.728 57.801 34.253 58.151 34.779 58.151 35.479 58.326 38.107 58.326 38.107 54.473 40.56 54.473 40.56 59.903"></polyline>
                    <path d="M42.661,57.626 L43.887,55.525 L45.115,53.597 L46.516,51.845 L48.968,51.845 L50.194,53.597 L51.596,55.525 L52.822,57.626 L54.048,59.903 L51.42,59.903 L50.194,57.276 L45.289,57.276 L44.063,59.903 L41.436,59.903 L42.661,57.626 Z M49.318,55.874 L47.742,53.247 L46.165,55.874 L49.318,55.874 Z" id="Fill-9"></path>
                    <polyline id="Fill-10" points="55.275 59.903 55.275 51.845 61.756 51.845 62.457 52.021 62.982 52.195 63.507 52.37 64.032 52.721 64.383 53.072 64.559 53.597 64.733 54.123 64.733 54.998 64.383 55.525 64.208 55.874 63.683 56.399 63.158 56.575 62.631 56.925 61.931 57.1 58.778 57.1 57.551 55.525 61.405 55.525 61.756 55.349 62.457 54.998 62.631 54.648 62.631 54.123 62.457 53.772 62.106 53.597 61.756 53.247 57.551 53.247 57.551 59.903 55.275 59.903"></polyline>
                    <path d="M77.872,55.525 L77.872,56.224 L77.697,56.75 L77.346,57.276 L76.996,57.977 L76.646,58.502 L76.119,58.852 L75.42,59.378 L74.894,59.728 L74.193,59.903 L73.318,60.253 L71.04,60.253 L70.339,60.079 L69.463,59.903 L68.938,59.552 L68.237,59.203 L67.712,58.677 L67.187,58.151 L66.836,57.626 L66.486,57.1 L66.31,56.575 L66.135,55.874 L66.135,55.349 L66.31,54.824 L66.486,54.123 L66.836,53.597 L67.187,53.247 L67.712,52.721 L68.237,52.37 L68.938,52.021 L69.463,51.845 L70.339,51.67 L71.04,51.495 L73.318,51.495 L74.193,51.67 L74.894,52.021 L75.42,52.195 L76.119,52.546 L76.646,52.896 L76.996,53.422 L77.346,53.772 L77.697,54.297 L77.872,54.998 L77.872,55.525 Z M75.594,55.699 L75.42,55.174 L75.42,54.648 L74.719,53.948 L74.193,53.597 L73.668,53.247 L73.142,53.072 L71.215,53.072 L70.689,53.247 L70.164,53.422 L69.638,53.772 L69.113,54.123 L68.938,54.473 L68.588,54.998 L68.588,56.399 L68.938,56.75 L69.113,57.276 L69.638,57.626 L70.164,57.977 L70.689,58.151 L71.215,58.326 L73.142,58.326 L73.668,58.151 L74.193,57.801 L74.719,57.45 L75.069,56.925 L75.42,56.575 L75.42,56.05 L75.594,55.699 Z" id="Fill-11"></path>
                    <polyline id="Fill-12" points="79.624 59.903 79.624 51.845 86.455 51.845 86.98 52.021 87.681 52.195 88.032 52.37 88.558 52.721 88.909 53.247 89.083 53.597 89.258 54.123 89.083 54.473 89.083 54.998 88.733 55.525 88.382 55.874 87.857 56.224 87.331 56.575 86.806 56.75 90.134 59.903 87.156 59.903 82.602 55.349 85.755 55.349 86.106 55.174 86.455 54.998 86.631 54.648 86.806 54.473 86.806 54.123 86.631 53.772 86.455 53.597 86.106 53.422 85.755 53.247 81.901 53.247 81.901 59.903 79.624 59.903"></polyline>
                    <polyline id="Fill-13" points="100.294 51.845 100.294 53.247 93.988 53.247 93.988 54.648 99.418 54.648 99.418 56.224 93.988 56.224 93.988 58.151 100.294 58.151 100.294 59.903 91.71 59.903 91.71 51.845 100.294 51.845"></polyline>
                    <path d="M120.264,59.903 L117.636,59.903 L116.409,57.276 L111.68,57.276 L110.279,59.903 L107.651,59.903 L112.731,51.845 L115.184,51.845 L120.264,59.903 Z M112.38,55.874 L115.535,55.874 L113.958,53.247 L112.38,55.874 Z" id="Fill-14"></path>
                    <polygon id="Fill-15" points="121.84 59.903 124.118 59.903 124.118 51.845 121.84 51.845"></polygon>
                    <polyline id="Fill-16" points="137.956 59.903 134.804 59.903 130.424 55.349 133.577 55.349 134.278 54.998 134.453 54.648 134.628 54.473 134.628 54.123 134.453 53.772 134.278 53.597 133.927 53.422 133.577 53.247 129.724 53.247 129.724 59.903 127.446 59.903 127.446 51.845 134.103 51.845 134.804 52.021 135.329 52.195 135.854 52.37 136.38 52.721 136.555 53.247 136.906 53.597 136.906 54.473 136.73 54.998 136.555 55.525 136.205 55.874 135.153 56.575 134.453 56.75 137.956 59.903"></polyline>
                    <polyline id="Fill-17" points="139.358 59.903 139.358 51.845 141.811 51.845 141.811 58.151 147.066 58.151 147.066 59.903 139.358 59.903"></polyline>
                    <polygon id="Fill-18" points="148.642 59.903 150.92 59.903 150.92 51.845 148.642 51.845"></polygon>
                    <polygon id="Fill-19" points="153.897 59.903 156.175 59.903 156.175 51.845 153.897 51.845"></polygon>
                    <polyline id="Fill-20" points="164.057 59.903 164.057 54.473 163.883 53.948 163.707 53.422 163.532 53.072 163.182 52.721 162.655 52.37 162.13 52.195 161.605 52.021 160.904 51.845 157.576 51.845 156.35 53.247 160.729 53.247 161.08 53.422 161.429 53.597 161.605 53.772 161.605 59.903 164.057 59.903"></polyline>
                    <polyline id="Fill-21" points="166.685 59.903 166.685 51.845 175.094 51.845 175.094 53.247 168.962 53.247 168.962 54.648 174.393 54.648 174.393 56.224 168.962 56.224 168.962 58.151 175.094 58.151 175.094 59.903 166.685 59.903"></polyline>
                    <polyline id="Fill-22" points="177.371 59.903 184.202 59.903 184.729 59.728 185.429 59.552 185.955 59.378 186.305 59.027 186.656 58.677 187.005 58.326 187.181 57.801 187.181 56.75 187.005 56.399 186.656 55.874 186.305 55.525 185.955 55.349 185.429 55.174 184.729 54.998 184.202 54.824 179.998 54.824 179.824 54.473 179.648 54.297 179.473 53.948 179.648 53.772 179.824 53.597 179.998 53.247 187.005 53.247 187.005 51.845 179.824 51.845 179.122 52.021 178.598 52.195 178.247 52.37 177.722 52.721 177.546 53.247 177.196 53.948 177.371 54.473 177.546 54.998 177.722 55.349 178.247 55.699 178.598 56.05 179.122 56.224 179.824 56.399 184.202 56.399 184.378 56.575 184.729 56.75 184.903 57.1 184.903 57.626 184.729 57.801 184.378 57.977 184.202 58.151 177.371 58.151 177.371 59.903"></polyline>
                </g>
                <rect id="Rectangle" x="0" y="0" width="200" height="140"></rect>
            </g>
        </g>
    </g>
</svg>