<?xml version="1.0" encoding="UTF-8"?>
<svg width="188px" height="55px" viewBox="0 0 188 55" version="1.1" xmlns="http://www.w3.org/2000/svg" xmlns:xlink="http://www.w3.org/1999/xlink">
    <!-- Generator: Sketch 55.2 (78181) - https://sketchapp.com -->
    <title>Spotify</title>
    <desc>Created with Sketch.</desc>
    <g id="Page-1" stroke="none" stroke-width="1" fill="none" fill-rule="evenodd">
        <g id="Artboard-Copy" transform="translate(-6.000000, -43.000000)">
            <g id="Spotify">
                <g id="spotify" transform="translate(6.000000, 43.000000)" fill="#FFFFFF" fill-rule="nonzero">
                    <path d="M0,37.6842514 L5.18131938,31.3805897 C8.76842175,34.3881198 12.5263385,36.2959268 17.0812877,36.2959268 C20.6683901,36.2959268 22.8320899,34.849882 22.8320899,32.4787938 L22.8320899,32.3633534 C22.8320899,30.1077058 21.4655747,28.9517812 14.8039652,27.2171351 C6.77568851,25.1346483 1.59436913,22.8790007 1.59436913,14.8406929 L1.59436913,14.7252523 C1.59436913,7.38110679 7.40205867,2.52348993 15.5441103,2.52348993 C21.3517998,2.52348993 26.3052652,4.37357665 30.3479233,7.67122712 L25.792822,14.3789307 C22.2627593,11.892402 18.7895838,10.3886369 15.4301833,10.3886369 C12.0709349,10.3886369 10.3055992,11.9501223 10.3055992,13.9156496 L10.3055992,14.0310901 C10.3055992,16.6922986 12.0138953,17.5596217 18.9035108,19.3519881 C26.9885228,21.4921952 31.5436242,24.440486 31.5436242,31.4960303 L31.5436242,31.6114708 C31.5436242,39.6497786 25.5082328,44.1610738 16.9106255,44.1610738 C10.8752341,44.1610738 4.78280315,42.0208668 0,37.6842514" id="Fill-49"></path>
                    <path d="M103.582466,36.1898911 L103.582466,21.320145 L99.6778523,21.320145 L99.6778523,14.3163228 L103.582466,14.3163228 L103.582466,6.30872483 L111.705335,6.30872483 L111.705335,14.3163228 L119.865772,14.3163228 L119.865772,21.320145 L111.705335,21.320145 L111.705335,35.0564988 C111.705335,37.5825168 113.331218,38.1672991 115.322496,38.1672991 C116.962565,38.1672991 118.459999,37.6382821 119.748546,36.9495051 L119.748546,43.6443573 C117.874338,44.7340418 115.707065,45.4228188 112.719836,45.4228188 C107.272738,45.4228188 103.582466,43.3007225 103.582466,36.1898911" id="Fill-50"></path>
                    <polygon id="Fill-51" points="122.389262 44.1610738 129.959732 44.1610738 129.959732 13.8791946 122.389262 13.8791946"></polygon>
                    <path d="M145.344954,14.4365375 L145.344954,12.9223473 C145.344954,10.6214463 147.094815,9.5856612 149.099175,9.5856612 C150.590021,9.5856612 151.793239,9.8727043 153.053682,10.3328845 L153.053682,3.3876567 C151.448386,2.86976414 149.615701,2.52348993 146.865918,2.52348993 C143.771283,2.52348993 141.732286,3.32994433 140.126992,4.94133438 C138.523203,6.55272443 137.529306,9.02676249 137.529306,12.4226797 L137.529306,14.3788252 L133.744966,14.3788252 L133.744966,21.2602657 L137.354621,21.2602657 L137.354621,44.936005 L145.417237,44.936005 L145.417237,21.2678593 L151.704391,21.2678593 L161.153944,44.6109933 C160.363345,46.4836077 159.039655,47.4206742 157.589468,47.4206742 C156.475098,47.4206742 154.687589,46.775207 153.571713,46.0902524 L150.7376,52.1546071 C152.912127,53.4668041 155.942008,54.2550336 159.00803,54.2550336 C164.429288,54.2550336 167.020951,49.5681818 167.944072,47.1624874 L180.42953,14.5018437 L172.372938,14.4912125 L165.081345,35.3208209 L157.086495,14.4259063 L152.98441,14.4259063 L145.344954,14.4365375" id="Fill-52"></path>
                    <path d="M129.959732,5.04697987 C129.959732,7.83416472 127.982684,10.0939597 125.543624,10.0939597 C123.104564,10.0939597 121.127517,7.83416472 121.127517,5.04697987 C121.127517,2.25979501 123.104564,0 125.543624,0 C127.982684,0 129.959732,2.25979501 129.959732,5.04697987" id="Fill-53"></path>
                    <path d="M183.839999,18.717334 C184.364672,18.717334 184.645696,18.3961625 184.645696,17.9500032 L184.645696,17.921525 C184.645696,17.405752 184.328678,17.1415371 183.815081,17.1415371 L182.803113,17.1415371 L182.803113,18.717334 L183.839999,18.717334 Z M181.766228,16.0957522 L183.852459,16.0957522 C184.486496,16.0957522 184.975175,16.3045929 185.304652,16.6811387 C185.560758,16.9738318 185.695041,17.3788559 185.695041,17.8519113 L185.695041,17.8803897 C185.695041,18.7442301 185.279733,19.2884812 184.68169,19.5400392 L185.82794,21.4639036 L184.620778,21.4639036 L183.619886,19.7346406 L182.803113,19.7346406 L182.803113,21.4639036 L181.766228,21.4639036 L181.766228,16.0957522 Z M187.487787,18.9261745 L187.487787,18.8976963 C187.487787,16.4295807 185.816865,14.4361027 183.596352,14.4361027 C181.363379,14.4361027 179.679998,16.4580589 179.679998,18.9261745 L179.679998,18.9530706 C179.679998,21.4211862 181.350921,23.4146642 183.571433,23.4146642 C185.804406,23.4146642 187.487787,21.3942901 187.487787,18.9261745 Z M179.167785,18.9530706 L179.167785,18.9261745 C179.167785,16.1796049 181.119732,13.8791946 183.596352,13.8791946 C186.072971,13.8791946 188,16.1511267 188,18.8976963 L188,18.9261745 C188,21.6727441 186.048053,23.9731544 183.571433,23.9731544 C181.094814,23.9731544 179.167785,21.6996402 179.167785,18.9530706 Z" id="Fill-54"></path>
                    <path d="M82.6442953,38.7214074 C78.0719841,38.7214074 74.3652109,34.6897856 74.3652109,29.715357 C74.3652109,24.7409284 78.0719841,20.7078101 82.6442953,20.7078101 C87.2166065,20.7078101 90.9232322,24.7409284 90.9232322,29.715357 C90.9232322,34.6897856 87.2166065,38.7214074 82.6442953,38.7214074 Z M82.7722828,13.8791946 C73.7322034,13.8791946 66.8724832,20.9457565 66.8724832,29.6510067 L66.8724832,29.7647422 C66.8724832,38.4699922 73.6780888,45.4228188 82.6640537,45.4228188 C91.7036909,45.4228188 98.4161074,38.3562569 98.4161074,29.6510067 L98.4161074,29.5387678 C98.4161074,20.8320212 91.7578055,13.8791946 82.7722828,13.8791946 Z" id="Fill-55"></path>
                    <path d="M49.7527405,38.9218009 C45.3268348,38.9218009 41.7390668,34.8636753 41.7390668,29.8591102 C41.7390668,24.8530235 45.3268348,20.7964196 49.7527405,20.7964196 C54.1784954,20.7964196 57.7662633,24.8530235 57.7662633,29.8591102 C57.7662633,34.8636753 54.1784954,38.9218009 49.7527405,38.9218009 Z M51.9400871,13.8791946 C46.9458549,13.8791946 43.9002782,15.6914285 41.8272919,18.5505278 L41.8272919,14.4513189 L34.0671141,14.4513189 L34.0671141,54.2550336 L41.9785132,54.2550336 L41.9785132,41.2544242 C43.9956035,43.713341 46.7968996,45.8298962 51.3352016,45.8298962 C58.4507627,45.8298962 65.6107383,40.2242964 65.6107383,29.9869252 L65.6107383,29.8728047 C65.6107383,19.6369551 58.7482201,13.8791946 51.9400871,13.8791946 Z" id="Fill-56"></path>
                </g>
                <rect id="Rectangle" x="0" y="0" width="200" height="140"></rect>
            </g>
        </g>
    </g>
</svg>